HIERARCHY
ROOT Torso
{
	OFFSET 0.000000 0.000000 0.000000
	CHANNELS 6 Xposition Yposition Zposition Xrotation Yrotation Zrotation 
	JOINT LHip
	{
		OFFSET 0.000000 0.000000 0.000000
		CHANNELS 3 Xrotation Yrotation Zrotation
		JOINT LThigh
		{
			OFFSET 0.055000 -0.055000 -0.010000
			CHANNELS 3 Xrotation Yrotation Zrotation
			JOINT LLeg
			{
				OFFSET 0.000000 -0.160000 0.015000
				CHANNELS 3 Xrotation Yrotation Zrotation
				JOINT LFoot
				{
					OFFSET 0.000000 -0.160000 -0.010000
					CHANNELS 3 Xrotation Yrotation Zrotation
					JOINT LToes
					{
						OFFSET 0.000000 0.000000 0.090000
						CHANNELS 3 Xrotation Yrotation Zrotation
						End Site
						{
							OFFSET 0.000000 0.000000 0.000000
						}
					}
				}
			}
		}
	}
	JOINT RHip
	{
		OFFSET 0.000000 0.000000 0.000000
		CHANNELS 3 Xrotation Yrotation Zrotation
		JOINT RThigh
		{
			OFFSET -0.055000 -0.055000 -0.010000
			CHANNELS 3 Xrotation Yrotation Zrotation
			JOINT RLeg
			{
				OFFSET 0.000000 -0.160000 0.015000
				CHANNELS 3 Xrotation Yrotation Zrotation
				JOINT RFoot
				{
					OFFSET 0.000000 -0.160000 -0.010000
					CHANNELS 3 Xrotation Yrotation Zrotation
					JOINT RToes
					{
						OFFSET 0.000000 0.000000 0.090000
						CHANNELS 3 Xrotation Yrotation Zrotation
						End Site
						{
							OFFSET 0.000000 0.000000 0.000000
						}
					}
				}
			}
		}
	}
	JOINT Neck
	{
		OFFSET 0.000000 0.135000 0.000000
		CHANNELS 3 Xrotation Yrotation Zrotation
		JOINT Head
		{
			OFFSET 0.000000 0.075000 0.000000
			CHANNELS 3 Xrotation Yrotation Zrotation
			End Site
			{
				OFFSET 0.000000 0.000000 0.000000
			}
		}
	}
	JOINT LUpperarm
	{
		OFFSET 0.098000 0.150000 0.000000
		CHANNELS 3 Xrotation Yrotation Zrotation
		JOINT LLowerarm
		{
			OFFSET 0.000000 0.009000 0.090000
			CHANNELS 3 Xrotation Yrotation Zrotation
			JOINT LHand
			{
				OFFSET 0.000000 0.000000 0.105000
				CHANNELS 3 Xrotation Yrotation Zrotation
				End Site
				{
					OFFSET 0.000000 0.000000 0.000000
				}
			}
		}
	}
	JOINT RUpperarm
	{
		OFFSET -0.098000 0.150000 0.000000
		CHANNELS 3 Xrotation Yrotation Zrotation
		JOINT RLowerarm
		{
			OFFSET 0.000000 0.009000 0.090000
			CHANNELS 3 Xrotation Yrotation Zrotation
			JOINT RHand
			{
				OFFSET 0.000000 0.000000 0.105000
				CHANNELS 3 Xrotation Yrotation Zrotation
				End Site
				{
					OFFSET 0.000000 0.000000 0.000000
				}
			}
		}
	}
}
MOTION
Frames: 18
Frame Time: 0.040000
-0.010979 0.415477 0.414397 176.050655 5.394309 -177.474369 -4.530965 -3.672444 3.626100 -9.862984 5.887427 -11.685798 32.955965 10.960470 2.864768 9.939730 -7.857590 4.753444 -11.668292 -4.210005 -0.430326 -8.700351 1.730094 -9.453933 -4.560494 7.522550 16.620321 26.723736 -10.852193 -5.175744 0.953800 3.083957 -0.987632 -9.816792 3.551007 0.304999 -3.763941 0.075291 1.358837 -4.909000 5.016205 -4.772926 72.625274 4.866797 -123.052901 4.984954 -2.906498 17.975795 -19.620796 2.608978 1.812487 77.798199 -8.004712 96.822586 27.879155 10.330757 -52.265403 -8.652863 -4.213233 -1.115100 
-0.011641 0.415420 0.414196 175.947517 5.703744 -177.450860 -4.600632 -3.513119 3.566626 -9.037200 5.907022 -11.879322 31.673580 10.581958 3.062933 9.343329 -7.833202 4.671442 -12.111092 -4.366804 -0.463444 -8.685426 1.824306 -9.503033 -5.297979 7.332140 16.587206 27.757984 -11.221027 -5.029689 0.935053 3.239809 -1.014299 -10.970397 3.962192 0.380667 -3.849898 -0.025608 1.422503 -4.846876 5.073602 -4.845679 72.457495 4.738527 -120.207439 6.254869 -3.511301 19.474723 -20.101115 2.653507 1.822042 77.882040 -7.571089 96.930534 26.717083 10.013333 -50.590187 -8.696184 -4.202841 -1.110730 
-0.012320 0.415484 0.414047 175.825402 6.034888 -177.413125 -4.684441 -3.363377 3.513211 -8.311263 5.887652 -12.066139 30.505830 10.220392 3.212795 9.037816 -7.677730 4.573561 -12.354896 -4.453092 -0.482255 -8.671927 1.923945 -9.560493 -6.125059 7.131411 16.551992 28.897438 -11.622969 -4.856739 0.973611 3.371894 -1.036480 -12.415094 4.474297 0.486910 -3.965146 -0.123370 1.528857 -4.794536 5.123219 -4.898826 72.398836 4.669034 -117.503155 7.619695 -4.230719 21.132773 -20.543362 2.705054 1.834896 77.946387 -7.121391 97.067028 25.483969 9.663557 -48.813800 -8.679958 -4.184684 -1.107651 
-0.013014 0.415642 0.413922 175.711741 6.373177 -177.382368 -4.771727 -3.226973 3.482770 -7.632097 5.824208 -12.256784 29.419546 9.869019 3.340331 8.931110 -7.495916 4.490380 -12.388195 -4.464796 -0.484819 -8.645230 2.022022 -9.610416 -7.024108 6.940682 16.503784 30.135856 -12.051081 -4.644746 1.129748 3.462855 -1.052511 -13.638891 4.905403 0.586952 -4.052182 -0.210286 1.572361 -4.729847 5.155483 -4.946726 72.501516 4.691237 -114.756171 9.145572 -5.046377 23.068759 -21.016035 2.761991 1.836387 77.981242 -6.657080 97.221139 24.206300 9.262512 -46.920825 -8.629940 -4.166340 -1.115423 
-0.013699 0.415902 0.413853 175.581723 6.746194 -177.358859 -4.880376 -3.091316 3.470875 -6.999632 5.691415 -12.435546 28.377520 9.524419 3.442538 8.950640 -7.266621 4.402185 -12.033996 -4.339592 -0.457656 -8.627476 2.130236 -9.652549 -8.032130 6.730673 16.465048 31.442063 -12.484934 -4.404355 1.511217 3.462208 -1.055889 -14.863195 5.333791 0.696249 -4.154302 -0.293504 1.608431 -4.669357 5.179568 -4.959751 72.683161 4.822973 -112.256200 10.735908 -5.905905 25.116290 -21.466331 2.815417 1.837864 77.976934 -6.174470 97.421849 22.910107 8.816011 -44.980411 -8.579412 -4.145546 -1.133083 
-0.014396 0.416268 0.413828 175.438058 7.145525 -177.326121 -4.997372 -2.958386 3.458858 -6.398988 5.553577 -12.601172 27.361568 9.186065 3.533599 9.024754 -7.043016 4.322655 -11.752198 -4.239788 -0.436599 -8.605680 2.240245 -9.699323 -9.156072 6.472152 16.424362 32.805236 -12.916630 -4.130951 2.194648 3.315329 -1.036816 -16.014488 5.734008 0.807223 -4.263669 -0.368659 1.635702 -4.628905 5.196045 -4.955731 72.889412 5.053428 -110.157673 12.382157 -6.785976 27.274870 -21.693423 2.871991 1.831253 77.891021 -5.654017 97.732587 21.517592 8.271824 -42.840199 -8.328248 -4.116948 -1.159607 
-0.015084 0.416706 0.413858 175.275912 7.534983 -177.295487 -5.130089 -2.837995 3.439173 -5.855546 5.385579 -12.743165 26.391868 8.858356 3.613941 9.155604 -6.805843 4.242868 -11.140593 -4.022701 -0.392467 -8.588804 2.341625 -9.759737 -10.370820 6.226323 16.402821 34.221342 -13.349999 -3.821457 3.107053 3.070029 -1.001714 -16.572689 5.927006 0.863936 -4.395308 -0.434265 1.659450 -4.591229 5.202949 -4.953247 73.103069 5.389911 -108.308943 14.098451 -7.685081 29.564475 -21.928199 2.931781 1.816882 77.690947 -5.078969 98.220789 20.019937 7.576756 -40.462528 -7.704924 -4.075253 -1.192833 
-0.015774 0.417211 0.413942 175.090768 7.949083 -177.261250 -5.278800 -2.723494 3.433326 -5.431563 5.210479 -12.869931 25.501248 8.560053 3.677674 9.354354 -6.553304 4.163938 -10.528596 -3.804995 -0.350731 -8.571414 2.448311 -9.811030 -11.674739 5.934008 16.360145 35.700513 -13.784961 -3.475907 4.273782 2.734188 -0.950210 -16.774888 5.996708 0.884928 -4.543134 -0.491899 1.637670 -4.553691 5.212845 -4.915792 73.308751 5.798928 -106.621580 15.823138 -8.547307 31.874956 -22.176963 2.985599 1.799817 77.390015 -4.502281 98.868973 18.470372 6.778255 -37.943377 -6.869143 -4.025520 -1.233494 
-0.016445 0.417677 0.414091 174.903805 8.347976 -177.221452 -5.410976 -2.618139 3.425154 -5.108293 5.095541 -12.968738 24.717440 8.302012 3.730247 9.585768 -6.377404 4.123242 -10.015393 -3.621903 -0.317441 -8.543124 2.544646 -9.868134 -13.064413 5.649868 16.302663 37.251812 -14.229885 -3.093661 5.590620 2.341026 -0.885071 -15.943894 5.709493 0.800232 -4.667556 -0.539001 1.638503 -4.531989 5.207654 -4.855435 73.465788 6.261076 -105.122873 17.560112 -9.366248 34.182155 -22.389836 3.036255 1.784031 77.061802 -3.955807 99.555093 16.903020 5.914757 -35.351142 -6.054199 -3.965017 -1.276484 
-0.017101 0.418054 0.414298 174.711143 8.762175 -177.189748 -5.523036 -2.519439 3.419802 -4.880655 5.126011 -13.021989 24.041729 8.087765 3.772341 9.879955 -6.325463 4.147707 -9.618695 -3.480198 -0.292903 -8.519890 2.645613 -9.926929 -14.520841 5.343536 16.240032 38.883470 -14.687930 -2.682320 7.028969 1.943608 -0.819402 -14.440692 5.186299 0.657490 -4.813703 -0.577317 1.572532 -4.506364 5.198552 -4.811547 73.590939 6.783977 -103.851568 19.266716 -10.125319 36.488019 -22.591779 3.074708 1.762931 76.699532 -3.471775 100.309122 15.391709 5.029365 -32.841850 -5.330890 -3.912888 -1.314671 
-0.017736 0.418397 0.414529 174.529568 9.158866 -177.157999 -5.621040 -2.425570 3.403512 -4.686798 5.170536 -13.056616 23.432128 7.896412 3.805105 10.172037 -6.268559 4.169782 -9.238695 -3.344300 -0.270278 -8.467837 2.727917 -9.993399 -16.058246 4.990106 16.159372 40.607508 -15.166705 -2.232744 8.506710 1.505392 -0.739065 -12.416294 4.474796 0.487014 -4.940943 -0.607509 1.526829 -4.482745 5.179186 -4.713756 73.657216 7.352588 -102.769655 20.995895 -10.848458 38.837942 -22.864783 3.110509 1.746336 76.336476 -3.023030 101.080343 13.901974 4.095810 -30.341501 -4.669526 -3.854992 -1.357543 
-0.018341 0.418758 0.414801 174.353048 9.546902 -177.131775 -5.716826 -2.325464 3.379383 -4.525525 5.148436 -13.079354 22.849978 7.716330 3.825866 10.441523 -6.140587 4.156395 -9.031397 -3.269994 -0.258351 -8.400710 2.797389 -10.058424 -17.669505 4.652899 16.083427 42.421452 -15.661025 -1.744321 9.983843 0.967013 -0.617455 -10.037393 3.629804 0.318832 -5.049389 -0.637688 1.483728 -4.434145 5.165771 -4.606426 73.629570 7.948744 -101.925000 22.740791 -11.489013 41.189659 -23.029403 3.141154 1.729264 75.945406 -2.614010 101.899483 12.434864 3.092832 -27.817499 -4.002097 -3.787455 -1.406618 
-0.018931 0.419212 0.415077 174.186617 9.902329 -177.116612 -5.828079 -2.225971 3.369844 -4.313323 5.060342 -13.123826 22.238433 7.521839 3.850221 10.704416 -5.949613 4.110156 -8.907897 -3.225793 -0.251366 -8.326931 2.852713 -10.101551 -19.361563 4.297740 15.996384 44.320523 -16.169369 -1.205000 11.488650 0.296510 -0.435189 -8.100498 2.935993 0.207976 -5.129302 -0.667975 1.424449 -4.399628 5.148667 -4.511331 73.545161 8.577101 -101.273951 24.507034 -12.066030 43.587949 -23.069990 3.164847 1.713418 75.476407 -2.252324 102.915825 10.992682 1.980525 -25.256116 -3.116156 -3.705893 -1.460819 
-0.019488 0.419728 0.415326 174.038045 10.212687 -177.114858 -5.944708 -2.134040 3.352859 -4.059818 4.905418 -13.158999 21.600491 7.308559 3.878244 10.968309 -5.687541 4.026322 -8.741995 -3.166301 -0.242065 -8.235043 2.881493 -10.146222 -21.099828 3.938496 15.909432 46.269216 -16.694813 -0.643130 12.752545 -0.208700 -0.296151 -7.436597 2.697097 0.175322 -5.190330 -0.688255 1.337794 -4.358633 5.136508 -4.451451 73.423056 9.239942 -100.717073 26.266666 -12.598779 45.989019 -23.119889 3.179593 1.701544 74.885136 -1.928471 104.272091 9.524994 0.696334 -22.547175 -1.925352 -3.604057 -1.527978 
-0.020004 0.420190 0.415617 173.901693 10.505418 -177.126232 -6.025746 -2.037020 3.335567 -3.804983 4.819394 -13.171897 20.918935 7.076145 3.914633 11.298574 -5.448154 3.960066 -8.651998 -3.133993 -0.237171 -8.139526 2.902627 -10.179422 -22.834952 3.680996 15.843422 48.263660 -17.228638 -0.067251 13.658493 -0.562915 -0.198279 -7.138099 2.589593 0.161593 -5.232971 -0.717529 1.286393 -4.329467 5.133130 -4.372659 73.229335 9.913720 -100.266059 27.996979 -13.069059 48.322085 -23.202368 3.191094 1.695733 74.292050 -1.681584 105.732764 8.108773 -0.654253 -19.867534 -0.653647 -3.486916 -1.603390 
-0.020486 0.420674 0.415868 173.785698 10.747674 -177.142174 -6.117249 -1.950122 3.320258 -3.514571 4.689628 -13.189513 20.237976 6.837156 3.952831 11.617174 -5.189052 3.878098 -8.616395 -3.121200 -0.235182 -8.049858 2.925258 -10.220227 -24.482895 3.468779 15.770987 50.270686 -17.758878 0.514277 14.197209 -0.647579 -0.201957 -7.757197 2.812496 0.190739 -5.256027 -0.743339 1.224000 -4.294625 5.118484 -4.314363 72.997915 10.569163 -99.868733 29.667330 -13.485545 50.561316 -23.249253 3.198219 1.695266 73.618259 -1.540934 107.588248 6.710253 -2.139457 -17.134536 0.884813 -3.345390 -1.695074 
-0.020913 0.421243 0.416108 173.675808 10.942411 -177.172083 -6.193163 -1.869392 3.314504 -3.243672 4.578199 -13.202656 19.576588 6.601539 3.995945 11.936449 -4.931684 3.793957 -8.657498 -3.135993 -0.237476 -7.939721 2.933298 -10.247728 -26.125883 3.268066 15.678394 52.284541 -18.277149 1.111505 14.550159 -0.586142 -0.264005 -8.529896 3.090197 0.230515 -5.299061 -0.764619 1.145836 -4.268089 5.108091 -4.232325 72.732110 11.188952 -99.520787 31.223981 -13.861878 52.640863 -23.269417 3.197820 1.701219 72.902718 -1.553609 109.858566 5.352011 -3.720077 -14.400300 2.612663 -3.184877 -1.797667 
-0.021306 0.421889 0.416295 173.603756 11.049880 -177.198678 -6.258786 -1.800498 3.283018 -2.956856 4.433489 -13.207444 18.942328 6.367682 4.038660 12.231206 -4.692120 3.711533 -8.847398 -3.204092 -0.247978 -7.806031 2.919735 -10.309721 -27.700569 3.073555 15.582607 54.293127 -18.773007 1.716887 14.789410 -0.364782 -0.395149 -8.902297 3.223795 0.251037 -5.322867 -0.783892 1.068687 -4.253403 5.086093 -4.156937 72.429183 11.766647 -99.227651 32.721274 -14.185173 54.621923 -23.230436 3.198138 1.706798 72.171059 -1.791077 112.801509 4.027135 -5.453118 -11.613801 4.859836 -2.995492 -1.905595 
